<svg width="463" height="126" viewBox="0 0 463 126" fill="none" xmlns="http://www.w3.org/2000/svg">
<g filter="url(#filter0_d_5_224)">
<g filter="url(#filter1_d_5_224)">
<path d="M10.0461 116V48.8H22.9101L62.5581 97.184H56.3181V48.8H71.6781V116H58.9101L19.1661 67.616H25.4061V116H10.0461ZM117.433 117.152C107.897 117.152 100.441 114.496 95.0654 109.184C89.6894 103.872 87.0014 96.288 87.0014 86.432V48.8H102.553V85.856C102.553 92.256 103.865 96.864 106.489 99.68C109.113 102.496 112.793 103.904 117.529 103.904C122.265 103.904 125.945 102.496 128.569 99.68C131.193 96.864 132.505 92.256 132.505 85.856V48.8H147.865V86.432C147.865 96.288 145.177 103.872 139.801 109.184C134.425 114.496 126.969 117.152 117.433 117.152ZM185.314 117.152C179.938 117.152 174.786 116.448 169.858 115.04C164.93 113.568 160.962 111.68 157.954 109.376L163.234 97.664C166.114 99.712 169.506 101.408 173.41 102.752C177.378 104.032 181.378 104.672 185.41 104.672C188.482 104.672 190.946 104.384 192.802 103.808C194.722 103.168 196.13 102.304 197.026 101.216C197.922 100.128 198.37 98.88 198.37 97.472C198.37 95.68 197.666 94.272 196.258 93.248C194.85 92.16 192.994 91.296 190.69 90.656C188.386 89.952 185.826 89.312 183.01 88.736C180.258 88.096 177.474 87.328 174.658 86.432C171.906 85.536 169.378 84.384 167.074 82.976C164.77 81.568 162.882 79.712 161.41 77.408C160.002 75.104 159.298 72.16 159.298 68.576C159.298 64.736 160.322 61.248 162.37 58.112C164.482 54.912 167.618 52.384 171.778 50.528C176.002 48.608 181.282 47.648 187.618 47.648C191.842 47.648 196.002 48.16 200.098 49.184C204.194 50.144 207.81 51.616 210.946 53.6L206.146 65.408C203.01 63.616 199.874 62.304 196.738 61.472C193.602 60.576 190.53 60.128 187.522 60.128C184.514 60.128 182.05 60.48 180.13 61.184C178.21 61.888 176.834 62.816 176.002 63.968C175.17 65.056 174.754 66.336 174.754 67.808C174.754 69.536 175.458 70.944 176.866 72.032C178.274 73.056 180.13 73.888 182.434 74.528C184.738 75.168 187.266 75.808 190.018 76.448C192.834 77.088 195.618 77.824 198.37 78.656C201.186 79.488 203.746 80.608 206.05 82.016C208.354 83.424 210.21 85.28 211.618 87.584C213.09 89.888 213.826 92.8 213.826 96.32C213.826 100.096 212.77 103.552 210.658 106.688C208.546 109.824 205.378 112.352 201.154 114.272C196.994 116.192 191.714 117.152 185.314 117.152ZM224.452 116V48.8H240.004V116H224.452ZM288.4 117.152C283.088 117.152 278.192 116.32 273.712 114.656C269.296 112.928 265.424 110.496 262.096 107.36C258.832 104.224 256.272 100.544 254.416 96.32C252.624 92.096 251.728 87.456 251.728 82.4C251.728 77.344 252.624 72.704 254.416 68.48C256.272 64.256 258.864 60.576 262.192 57.44C265.52 54.304 269.424 51.904 273.904 50.24C278.384 48.512 283.312 47.648 288.688 47.648C294.64 47.648 299.984 48.64 304.72 50.624C309.52 52.608 313.552 55.488 316.816 59.264L306.832 68.48C304.4 65.92 301.744 64.032 298.864 62.816C295.984 61.536 292.848 60.896 289.456 60.896C286.192 60.896 283.216 61.408 280.528 62.432C277.84 63.456 275.504 64.928 273.52 66.848C271.6 68.768 270.096 71.04 269.008 73.664C267.984 76.288 267.472 79.2 267.472 82.4C267.472 85.536 267.984 88.416 269.008 91.04C270.096 93.664 271.6 95.968 273.52 97.952C275.504 99.872 277.808 101.344 280.432 102.368C283.12 103.392 286.064 103.904 289.264 103.904C292.336 103.904 295.312 103.424 298.192 102.464C301.136 101.44 303.984 99.744 306.736 97.376L315.568 108.608C311.92 111.36 307.664 113.472 302.8 114.944C298 116.416 293.2 117.152 288.4 117.152ZM301.36 106.592V81.344H315.568V108.608L301.36 106.592ZM376.095 48.8H391.647V116H376.095V48.8ZM345.567 116H330.015V48.8H345.567V116ZM377.247 88.448H344.415V75.296H377.247V88.448ZM421.466 116V61.472H399.962V48.8H458.522V61.472H437.018V116H421.466Z" fill="url(#paint0_linear_5_224)"/>
</g>
<path d="M210 24C210 24 218 8 232 8C246 8 254 24 254 24C254 24 246 40 232 40C218 40 210 24 210 24Z" stroke="#818181" stroke-width="4" stroke-linecap="round" stroke-linejoin="round"/>
<path d="M232 30C235.314 30 238 27.3137 238 24C238 20.6863 235.314 18 232 18C228.686 18 226 20.6863 226 24C226 27.3137 228.686 30 232 30Z" stroke="#818181" stroke-width="4" stroke-linecap="round" stroke-linejoin="round"/>
</g>
<defs>
<filter id="filter0_d_5_224" x="6.04614" y="0" width="456.476" height="125.152" filterUnits="userSpaceOnUse" color-interpolation-filters="sRGB">
<feFlood flood-opacity="0" result="BackgroundImageFix"/>
<feColorMatrix in="SourceAlpha" type="matrix" values="0 0 0 0 0 0 0 0 0 0 0 0 0 0 0 0 0 0 127 0" result="hardAlpha"/>
<feOffset dy="4"/>
<feGaussianBlur stdDeviation="2"/>
<feComposite in2="hardAlpha" operator="out"/>
<feColorMatrix type="matrix" values="0 0 0 0 0 0 0 0 0 0 0 0 0 0 0 0 0 0 0.25 0"/>
<feBlend mode="normal" in2="BackgroundImageFix" result="effect1_dropShadow_5_224"/>
<feBlend mode="normal" in="SourceGraphic" in2="effect1_dropShadow_5_224" result="shape"/>
</filter>
<filter id="filter1_d_5_224" x="6.04614" y="47.648" width="456.476" height="77.504" filterUnits="userSpaceOnUse" color-interpolation-filters="sRGB">
<feFlood flood-opacity="0" result="BackgroundImageFix"/>
<feColorMatrix in="SourceAlpha" type="matrix" values="0 0 0 0 0 0 0 0 0 0 0 0 0 0 0 0 0 0 127 0" result="hardAlpha"/>
<feOffset dy="4"/>
<feGaussianBlur stdDeviation="2"/>
<feComposite in2="hardAlpha" operator="out"/>
<feColorMatrix type="matrix" values="0 0 0 0 0 0 0 0 0 0 0 0 0 0 0 0 0 0 0.25 0"/>
<feBlend mode="normal" in2="BackgroundImageFix" result="effect1_dropShadow_5_224"/>
<feBlend mode="normal" in="SourceGraphic" in2="effect1_dropShadow_5_224" result="shape"/>
</filter>
<linearGradient id="paint0_linear_5_224" x1="231" y1="48.5" x2="231" y2="116" gradientUnits="userSpaceOnUse">
<stop stop-color="#9B9B9B"/>
<stop offset="1"/>
</linearGradient>
</defs>
</svg>
